<svg width="100" height="78" viewBox="0 0 100 78" fill="none" xmlns="http://www.w3.org/2000/svg">
<g clip-path="url(#clip0_287_31299)">
<path d="M62.8319 71.5758V71.2822H44.3544V71.5758L44.3577 71.721C44.3577 73.3473 43.7116 74.9071 42.5616 76.0571C41.4115 77.2071 39.8518 77.8532 38.2254 77.8532C36.599 77.8532 35.0393 77.2071 33.8892 76.0571C32.7392 74.9071 32.0931 73.3473 32.0931 71.721L32.0964 71.5693V71.2822H29.9899C29.0918 71.2823 28.2208 70.9751 27.5213 70.4118C26.8219 69.8485 26.3361 69.0629 26.1448 68.1855L26.1415 68.1597L13.8286 9.85967L3.30927 8.10805C2.30741 7.90568 1.42345 7.32178 0.84414 6.47971C0.264834 5.63764 0.0355538 4.60335 0.20474 3.59535C0.373926 2.58735 0.928327 1.6846 1.75082 1.07781C2.5733 0.471018 3.59946 0.207719 4.61249 0.343536L4.59314 0.34031L17.7577 2.53386C19.3609 2.80805 20.6189 4.02096 20.9544 5.57579L20.9577 5.6016L23.1899 16.1306L61.5931 19.3306C61.356 20.5922 61.2351 21.8728 61.2319 23.1564V23.1693C61.2319 24.4661 61.3448 25.7371 61.5641 26.9726L61.5448 26.8435C60.4879 27.1766 59.5908 27.8874 59.0249 28.8401C58.459 29.7928 58.264 30.9206 58.477 32.0081L58.4738 31.979L60.7931 48.721C60.9351 49.7952 61.4254 50.7371 62.1415 51.4468C62.7931 52.0952 63.6867 52.5016 64.677 52.5113H64.6802C64.8996 52.5113 65.1157 52.4887 65.3222 52.45L65.2996 52.4532C66.3994 52.1658 67.3489 51.471 67.9557 50.5097C68.5624 49.5483 68.7811 48.3923 68.5673 47.2758L68.5706 47.3048L67.306 38.2016C69.313 40.2897 71.7216 41.9503 74.387 43.0835C77.0524 44.2166 79.9195 44.7988 82.8157 44.7952C82.9544 44.7952 83.0931 44.7952 83.2286 44.7758L83.5286 44.7597L81.3706 57.3468C81.3189 57.6519 81.161 57.9289 80.925 58.129C80.6889 58.3291 80.3897 58.4393 80.0802 58.4403H32.1286L33.1835 63.4306H78.8512C79.8674 63.4709 80.8287 63.9028 81.5337 64.6357C82.2388 65.3687 82.633 66.346 82.6338 67.363C82.6346 68.38 82.242 69.358 81.5382 70.0921C80.8343 70.8262 79.8738 71.2596 78.8577 71.3016H75.0964V71.5952C75.0964 73.2215 74.4503 74.7813 73.3003 75.9313C72.1502 77.0813 70.5905 77.7274 68.9641 77.7274C67.3377 77.7274 65.778 77.0813 64.6279 75.9313C63.4779 74.7813 62.8319 73.2215 62.8319 71.5952V71.5758ZM67.2125 71.5758C67.2132 71.8166 67.2638 72.0545 67.3613 72.2747C67.4587 72.4948 67.6008 72.6924 67.7785 72.8547C67.9563 73.0171 68.1658 73.1408 68.3939 73.218C68.6219 73.2951 68.8635 73.3241 69.1034 73.303C69.3432 73.282 69.576 73.2113 69.7871 73.0956C69.9982 72.9798 70.183 72.8215 70.3297 72.6306C70.4764 72.4397 70.5819 72.2205 70.6395 71.9867C70.697 71.7529 70.7054 71.5098 70.6641 71.2726V71.2822H67.2448C67.2275 71.3791 67.2188 71.4774 67.2189 71.5758H67.2125ZM36.477 71.5758C36.4777 71.8166 36.5283 72.0545 36.6258 72.2747C36.7232 72.4948 36.8653 72.6924 37.0431 72.8547C37.2208 73.0171 37.4304 73.1408 37.6584 73.218C37.8865 73.2951 38.128 73.3241 38.3679 73.303C38.6077 73.282 38.8405 73.2113 39.0516 73.0956C39.2627 72.9798 39.4475 72.8215 39.5942 72.6306C39.741 72.4397 39.8464 72.2205 39.904 71.9867C39.9616 71.7529 39.9699 71.5098 39.9286 71.2726V71.2822H36.506C36.4899 71.3771 36.4823 71.4732 36.4835 71.5693V71.5758H36.477ZM48.9512 26.8177C47.8509 27.1045 46.901 27.7991 46.2941 28.7606C45.6873 29.7222 45.4689 30.8786 45.6835 31.9952L45.6802 31.9661L47.9996 48.7081C48.1415 49.7823 48.6319 50.7242 49.348 51.4339C49.9996 52.0822 50.8931 52.4887 51.8835 52.4984C52.1028 52.4984 52.3222 52.4758 52.5286 52.4371L52.506 52.4403C53.6059 52.1529 54.5554 51.4581 55.1621 50.4968C55.7689 49.5354 55.9875 48.3794 55.7738 47.2629L55.777 47.2919L53.4577 30.55C53.3239 29.5167 52.8494 28.5575 52.1093 27.8242C51.4356 27.1513 50.5258 26.7682 49.5738 26.7564H49.5706C49.348 26.7564 49.1319 26.779 48.9222 26.821L48.9448 26.8177H48.9512ZM36.1577 26.8177C35.0537 27.1032 34.1004 27.7993 33.4925 28.764C32.8846 29.7286 32.6679 30.889 32.8867 32.0081L32.8835 31.979L35.2028 48.721C35.3448 49.7952 35.8351 50.7371 36.5512 51.4468C37.2028 52.0952 38.0964 52.5016 39.0867 52.5113H39.0899C39.3093 52.5113 39.5254 52.4887 39.7319 52.45L39.7093 52.4532C40.8101 52.1671 41.7608 51.4728 42.3684 50.5112C42.9759 49.5496 43.1946 48.3928 42.9802 47.2758L42.9835 47.3048L40.6609 30.5532C40.5271 29.5199 40.0526 28.5608 39.3125 27.8274C38.6396 27.1534 37.7293 26.7701 36.777 26.7597H36.7738C36.5544 26.7597 36.3415 26.7823 36.1351 26.821L36.1577 26.8177ZM64.5093 23.179C64.5101 18.3196 66.4414 13.6595 69.8781 10.2239C71.5798 8.52284 73.5999 7.17356 75.8231 6.25315C78.0462 5.33275 80.4289 4.85924 82.8351 4.85967C85.2412 4.86009 87.6237 5.33444 89.8466 6.25562C92.0694 7.17681 94.089 8.5268 95.7902 10.2285C97.4913 11.9302 98.8405 13.9503 99.7609 16.1735C100.681 18.3966 101.155 20.7793 101.154 23.1855C101.153 28.0458 99.2212 32.7065 95.7835 36.1424C92.3458 39.5782 87.6841 41.5077 82.8238 41.5064C77.9635 41.5052 73.3027 39.5732 69.8669 36.1355C66.4311 32.6979 64.5015 28.0361 64.5028 23.1758L64.5093 23.179ZM69.7577 23.179C69.7577 24.896 70.0958 26.5961 70.7529 28.1823C71.4099 29.7685 72.3729 31.2098 73.587 32.4239C74.801 33.6379 76.2423 34.601 77.8286 35.258C79.4148 35.915 81.1149 36.2532 82.8318 36.2532C84.5488 36.2532 86.2489 35.915 87.8351 35.258C89.4214 34.601 90.8626 33.6379 92.0767 32.4239C93.2908 31.2098 94.2538 29.7685 94.9108 28.1823C95.5679 26.5961 95.9061 24.896 95.9061 23.179C95.9065 19.7107 94.5291 16.3842 92.0769 13.9314C89.6247 11.4786 86.2986 10.1004 82.8302 10.1C79.3619 10.0996 76.0354 11.4769 73.5826 13.9291C71.1298 16.3813 69.7516 19.7074 69.7512 23.1758L69.7577 23.179ZM80.2093 28.4081V25.8016H77.6028C76.9064 25.8016 76.2385 25.525 75.7461 25.0325C75.2537 24.5401 74.977 23.8722 74.977 23.1758C74.977 22.4794 75.2537 21.8115 75.7461 21.3191C76.2385 20.8266 76.9064 20.55 77.6028 20.55H80.2093V17.9435C80.2093 17.2471 80.4859 16.5792 80.9783 16.0868C81.4708 15.5944 82.1387 15.3177 82.8351 15.3177C83.5315 15.3177 84.1994 15.5944 84.6918 16.0868C85.1842 16.5792 85.4609 17.2471 85.4609 17.9435V20.55H88.0673C88.7637 20.55 89.4316 20.8266 89.9241 21.3191C90.4165 21.8115 90.6931 22.4794 90.6931 23.1758C90.6931 23.8722 90.4165 24.5401 89.9241 25.0325C89.4316 25.525 88.7637 25.8016 88.0673 25.8016H85.4609V28.4048C85.4609 29.1012 85.1842 29.7691 84.6918 30.2616C84.1994 30.754 83.5315 31.0306 82.8351 31.0306C82.1387 31.0306 81.4708 30.754 80.9783 30.2616C80.4859 29.7691 80.2093 29.1012 80.2093 28.4048V28.4081Z" fill="#660099"/>
</g>
<defs>
<clipPath id="clip0_287_31299">
<rect width="100" height="77.4194" fill="white" transform="translate(0 0.291016)"/>
</clipPath>
</defs>
</svg>
