<svg width="100" height="100" viewBox="0 0 100 100" fill="none" xmlns="http://www.w3.org/2000/svg">
<path d="M73.0765 0C64.5803 0 57.6919 6.89615 57.6919 15.3846C57.6919 25.6346 71.1534 39.6385 71.1534 53.7269H74.9995C75.0034 39.6385 88.4611 26.0385 88.4611 15.3846C88.4611 6.89615 81.5726 0 73.0765 0ZM73.0765 7.45385C74.1185 7.45435 75.1502 7.66009 76.1126 8.0593C77.0751 8.45852 77.9495 9.04341 78.686 9.78056C79.4224 10.5177 80.0064 11.3927 80.4047 12.3556C80.803 13.3184 81.0078 14.3503 81.0072 15.3923C81.0067 16.4343 80.801 17.466 80.4018 18.4285C80.0026 19.3909 79.4177 20.2654 78.6805 21.0018C77.9434 21.7382 77.0684 22.3223 76.1055 22.7206C75.1427 23.1188 74.1108 23.3236 73.0688 23.3231C70.9639 23.3221 68.9456 22.4849 67.4579 20.9958C65.9703 19.5067 65.1351 17.4876 65.1361 15.3827C65.1371 13.2778 65.9743 11.2595 67.4634 9.77184C68.9525 8.28417 70.9716 7.45283 73.0765 7.45385ZM49.9995 7.69231C24.5495 7.69231 3.8457 28.3962 3.8457 53.8462C3.8457 79.2962 24.5495 100 49.9995 100C75.4496 100 96.1534 79.2962 96.1534 53.8462C96.1534 46.1154 94.238 38.8615 90.8649 32.45C90.3534 33.4654 89.838 34.4308 89.3034 35.4577C88.2919 37.4115 87.2265 39.3846 86.2957 41.3462C87.2572 44.0962 87.9188 47.0038 88.2188 50H83.1726C82.8957 51.2885 82.6919 52.5 82.6919 53.7269V57.6923H88.2226C87.7008 63.1147 86.0192 68.3614 83.2919 73.0769H71.9995C72.8457 69.4692 73.3342 65.4808 73.6803 61.4192H66.1034C65.745 65.3545 65.0632 69.2535 64.0649 73.0769H35.9342C34.6343 68.0432 33.8686 62.8865 33.6495 57.6923H63.4572V53.7269C63.4275 52.4712 63.2663 51.2221 62.9765 50H33.6534C33.8724 44.8058 34.6382 39.6491 35.938 34.6154H56.4919C55.1578 32.0962 53.9134 29.5304 52.7611 26.9231H38.5803C41.7611 19.6654 45.9649 15.3846 49.9995 15.3846C49.9995 12.7115 50.4803 10.2 51.3226 7.81154C50.8803 7.79615 50.4457 7.69231 49.9995 7.69231ZM34.1342 18.8692C32.6025 21.4273 31.3147 24.1238 30.288 26.9231H22.5957C25.9134 23.5511 29.8251 20.8208 34.1342 18.8692ZM16.7072 34.6154H27.9996C26.8363 39.6679 26.1525 44.819 25.9572 50H11.7765C12.2966 44.5773 13.9783 39.3302 16.7072 34.6154ZM11.7765 57.6923H25.9611C26.188 63.1731 26.8957 68.3462 28.0034 73.0769H16.7072C13.9816 68.3607 12.3001 63.1143 11.7765 57.6923ZM22.5957 80.7692H30.288C31.3957 83.7538 32.6919 86.4346 34.1342 88.8231C29.8251 86.8715 25.9134 84.1412 22.5957 80.7692ZM38.5803 80.7692H61.4188C58.238 88.0269 54.0342 92.3077 49.9995 92.3077C45.9649 92.3077 41.7572 88.0269 38.5803 80.7692ZM69.7111 80.7692H77.4034C74.0857 84.1412 70.174 86.8715 65.8649 88.8231C67.3072 86.4385 68.6034 83.7577 69.7111 80.7692Z" fill="#660099"/>
</svg>
