<svg width="62" height="62" viewBox="0 0 62 62" fill="none" xmlns="http://www.w3.org/2000/svg">
<g clip-path="url(#clip0_283_9903)">
<path d="M23.7593 35.5555L18.0853 19.5304C17.8197 18.7803 17.863 17.9555 18.2056 17.2374C18.5481 16.5193 19.1619 15.9667 19.912 15.7011C20.662 15.4355 21.4868 15.4788 22.2049 15.8214C22.923 16.1639 23.4757 16.7777 23.7412 17.5278L28.7477 31.6676M28.414 30.7249L27.0789 26.9543C26.8133 26.2043 26.8566 25.3795 27.1992 24.6614C27.5417 23.9432 28.1555 23.3906 28.9056 23.125C29.6556 22.8595 30.4804 22.9027 31.1985 23.2453C31.9166 23.5879 32.4693 24.2017 32.7348 24.9517L34.4037 29.665M33.4024 26.837C33.1368 26.087 33.1801 25.2622 33.5226 24.5441C33.8652 23.8259 34.479 23.2733 35.229 23.0078C35.979 22.7422 36.8038 22.7855 37.522 23.128C38.2401 23.4706 38.7927 24.0844 39.0583 24.8344L40.0596 27.6624" stroke="#660099" stroke-width="4.08333" stroke-linecap="round" stroke-linejoin="round"/>
<path d="M39.7262 26.7198C39.4606 25.9697 39.5039 25.1449 39.8464 24.4268C40.189 23.7087 40.8028 23.1561 41.5528 22.8905C42.3029 22.6249 43.1277 22.6682 43.8458 23.0108C44.5639 23.3533 45.1165 23.9671 45.3821 24.7172L48.386 33.2011C49.4482 36.2012 49.2752 39.5004 47.9049 42.3729C46.5347 45.2454 44.0794 47.4559 41.0793 48.5181L37.3087 49.8532L37.7009 49.7144C35.8276 50.378 33.8189 50.566 31.855 50.2615C29.8911 49.9569 28.0337 49.1695 26.4493 47.9697L25.8796 47.5349C24.9716 46.8401 21.6328 43.972 15.8608 38.9294C15.2724 38.4154 14.9077 37.6921 14.8444 36.9133C14.781 36.1346 15.024 35.3619 15.5216 34.7595C16.0514 34.1176 16.7806 33.6711 17.5933 33.491C18.406 33.3109 19.2555 33.4075 20.007 33.7654L23.7597 35.5555M11.4284 18.705L8.87555 17.4873M12.2132 26.9138L10.3279 27.5813M28.3962 12.6972L29.614 10.1444M32.2841 17.6856L34.1694 17.0181" stroke="#660099" stroke-width="4.08333" stroke-linecap="round" stroke-linejoin="round"/>
</g>
<defs>
<clipPath id="clip0_283_9903">
<rect width="48" height="48" fill="white" transform="translate(0 16.3867) rotate(-19.4976)"/>
</clipPath>
</defs>
</svg>
