<svg width="100" height="96" viewBox="0 0 100 96" fill="none" xmlns="http://www.w3.org/2000/svg">
<g clip-path="url(#clip0_287_31314)">
<path d="M-0.0371094 10.5192C-0.0371094 7.86502 1.01724 5.31959 2.894 3.44283C4.77076 1.56607 7.31619 0.511719 9.97033 0.511719H90.0299C92.684 0.511719 95.2294 1.56607 97.1062 3.44283C98.9829 5.31959 100.037 7.86502 100.037 10.5192V65.5601C100.037 68.2142 98.9829 70.7597 97.1062 72.6364C95.2294 74.5132 92.684 75.5675 90.0299 75.5675H55.0038V85.575H70.015C71.342 85.575 72.6148 86.1021 73.5531 87.0405C74.4915 87.9789 75.0187 89.2516 75.0187 90.5787C75.0187 91.9058 74.4915 93.1785 73.5531 94.1169C72.6148 95.0552 71.342 95.5824 70.015 95.5824H29.9852C28.6581 95.5824 27.3854 95.0552 26.447 94.1169C25.5087 93.1785 24.9815 91.9058 24.9815 90.5787C24.9815 89.2516 25.5087 87.9789 26.447 87.0405C27.3854 86.1021 28.6581 85.575 29.9852 85.575H44.9964V75.5675H9.97033C7.31619 75.5675 4.77076 74.5132 2.894 72.6364C1.01724 70.7597 -0.0371094 68.2142 -0.0371094 65.5601V10.5192ZM90.0299 65.5601V10.5192H9.97033V65.5601H90.0299Z" fill="#660099"/>
<g clip-path="url(#clip1_287_31314)">
<path d="M74.5 34.0178V35.3928C74.5 36.5319 73.5766 37.4553 72.4375 37.4553H71.75L69.5059 53.1637C69.2156 55.1958 67.4752 56.7053 65.4224 56.7053H34.0776C32.0248 56.7053 30.2844 55.1958 29.994 53.1637L27.75 37.4553H27.0625C25.9234 37.4553 25 36.5319 25 35.3928V34.0178C25 32.8787 25.9234 31.9553 27.0625 31.9553H32.8496L42.026 19.3379C42.9193 18.1097 44.6391 17.838 45.8675 18.7313C47.0958 19.6247 47.3674 21.3445 46.4741 22.5728L39.6504 31.9553H59.8496L53.0259 22.5728C52.1326 21.3445 52.4043 19.6246 53.6326 18.7313C54.8607 17.8379 56.5807 18.1095 57.4741 19.3378L66.6504 31.9553H72.4375C73.5766 31.9553 74.5 32.8787 74.5 34.0178ZM51.8125 49.1428V39.5178C51.8125 38.3787 50.8891 37.4553 49.75 37.4553C48.6109 37.4553 47.6875 38.3787 47.6875 39.5178V49.1428C47.6875 50.2819 48.6109 51.2053 49.75 51.2053C50.8891 51.2053 51.8125 50.2819 51.8125 49.1428ZM61.4375 49.1428V39.5178C61.4375 38.3787 60.5141 37.4553 59.375 37.4553C58.2359 37.4553 57.3125 38.3787 57.3125 39.5178V49.1428C57.3125 50.2819 58.2359 51.2053 59.375 51.2053C60.5141 51.2053 61.4375 50.2819 61.4375 49.1428ZM42.1875 49.1428V39.5178C42.1875 38.3787 41.2641 37.4553 40.125 37.4553C38.9859 37.4553 38.0625 38.3787 38.0625 39.5178V49.1428C38.0625 50.2819 38.9859 51.2053 40.125 51.2053C41.2641 51.2053 42.1875 50.2819 42.1875 49.1428Z" fill="#660099"/>
</g>
</g>
<defs>
<clipPath id="clip0_287_31314">
<rect width="100" height="95.0893" fill="white" transform="translate(0 0.455078)"/>
</clipPath>
<clipPath id="clip1_287_31314">
<rect width="49.5" height="44" fill="white" transform="translate(25 15.4551)"/>
</clipPath>
</defs>
</svg>
