<svg width="100" height="62" viewBox="0 0 100 62" fill="none" xmlns="http://www.w3.org/2000/svg">
<path d="M42.5312 0.957031L34.5469 8.94141C32.1562 9.59766 29.9375 10.8008 28.0625 12.457L23.9062 16.1602C22.3125 17.582 20.2344 18.3633 18.0938 18.3633H15V38.3633C18.1875 38.457 21.2188 39.7539 23.4844 42.0195L29.0469 47.582L30.1406 48.6758L34.3594 52.8945C35.3281 53.8633 36.9219 53.8633 37.8906 52.8945C38.1562 52.6289 38.3594 52.3164 38.4688 51.9883C38.9062 50.7852 39.9219 49.8789 41.1719 49.5977C42.4219 49.3164 43.7344 49.6914 44.6406 50.6133L46.3281 52.2695C48.1406 54.082 51.0781 54.082 52.875 52.2695C53.7188 51.4258 54.1719 50.3477 54.2188 49.2383C54.2812 47.8633 55.0938 46.6445 56.3438 46.0508C57.5938 45.457 59.0469 45.582 60.1562 46.3789C61.625 47.4258 63.6719 47.2852 64.9844 45.9727C66.4531 44.5039 66.4531 42.1289 64.9844 40.6758L53.1406 28.832L47.5469 33.9883C43.2812 37.9258 36.7344 37.9883 32.3906 34.1289C27.4375 29.7227 27.3281 22.0352 32.1406 17.4883L43.0938 7.14453C47.375 3.11328 53.0312 0.863281 58.9219 0.863281C64.5625 0.863281 70.0156 2.94141 74.2188 6.67578L78.9219 10.8633H97.5C98.875 10.8633 100 11.9883 100 13.3633V45.8633C100 48.6289 97.7656 50.8633 95 50.8633H90C88.1562 50.8633 86.5312 49.8633 85.6719 48.3633H72.4062C71.875 49.4102 71.1719 50.4102 70.2969 51.2852C67.625 53.957 63.9219 55.0039 60.4531 54.4258C59.8906 55.5664 59.125 56.6289 58.1719 57.582C53.9062 61.8477 47.2344 62.2695 42.4844 58.8477C38.5625 62.0977 32.7188 61.8945 29.0469 58.207L24.8438 53.9883L23.75 52.8945L18.1875 47.332C17.3281 46.4727 16.2031 45.9727 15 45.8789C15 48.6289 12.75 50.8633 10 50.8633H5C2.23438 50.8633 0 48.6289 0 45.8633V13.3633C0 11.9883 1.125 10.8633 2.5 10.8633H18.0938C18.4062 10.8633 18.7031 10.7539 18.9219 10.5508L23.0625 6.86328C27.4219 3.00391 33.0312 0.863281 38.8594 0.863281H40.4688C41.1562 0.863281 41.8594 0.894531 42.5312 0.957031ZM85 40.8633V18.3633H77.5C76.5781 18.3633 75.6875 18.0195 75.0156 17.4102L69.25 12.2852C66.4062 9.75391 62.7344 8.36328 58.9219 8.36328C54.9531 8.36328 51.1406 9.87891 48.25 12.5977L37.2969 22.9414C35.6875 24.4727 35.7188 27.0508 37.375 28.5195C38.8281 29.8164 41.0312 29.7852 42.4531 28.4727L53.6875 18.0977C55.2031 16.6914 57.5781 16.7852 58.9844 18.3164C60.3906 19.8477 60.2969 22.207 58.7656 23.6133L58.6406 23.7383L70.2656 35.3633C71.8281 36.9258 72.8438 38.8477 73.2969 40.8477H85V40.8633ZM10 43.3633C10 42.7002 9.73661 42.0644 9.26777 41.5955C8.79893 41.1267 8.16304 40.8633 7.5 40.8633C6.83696 40.8633 6.20107 41.1267 5.73223 41.5955C5.26339 42.0644 5 42.7002 5 43.3633C5 44.0263 5.26339 44.6622 5.73223 45.1311C6.20107 45.5999 6.83696 45.8633 7.5 45.8633C8.16304 45.8633 8.79893 45.5999 9.26777 45.1311C9.73661 44.6622 10 44.0263 10 43.3633ZM92.5 45.8633C93.163 45.8633 93.7989 45.5999 94.2678 45.1311C94.7366 44.6622 95 44.0263 95 43.3633C95 42.7002 94.7366 42.0644 94.2678 41.5955C93.7989 41.1267 93.163 40.8633 92.5 40.8633C91.837 40.8633 91.2011 41.1267 90.7322 41.5955C90.2634 42.0644 90 42.7002 90 43.3633C90 44.0263 90.2634 44.6622 90.7322 45.1311C91.2011 45.5999 91.837 45.8633 92.5 45.8633Z" fill="#660099"/>
</svg>
